<mxfile host="Electron" agent="Mozilla/5.0 (Windows NT 10.0; Win64; x64) AppleWebKit/537.36 (KHTML, like Gecko) draw.io/24.7.8 Chrome/128.0.6613.36 Electron/32.0.1 Safari/537.36" version="24.7.8">
  <diagram id="C5RBs43oDa-KdzZeNtuy" name="Page-1">
    <mxGraphModel dx="1740" dy="1739" grid="1" gridSize="10" guides="1" tooltips="1" connect="1" arrows="1" fold="1" page="1" pageScale="1" pageWidth="827" pageHeight="1169" math="0" shadow="0">
      <root>
        <mxCell id="WIyWlLk6GJQsqaUBKTNV-0" />
        <mxCell id="WIyWlLk6GJQsqaUBKTNV-1" parent="WIyWlLk6GJQsqaUBKTNV-0" />
        <mxCell id="QvbqoP-MdQbPCHWrtRdc-0" value="&lt;div&gt;&lt;span style=&quot;font-weight: normal;&quot;&gt;«entity»&lt;/span&gt;&lt;/div&gt;Student" style="swimlane;fontStyle=1;align=center;verticalAlign=middle;childLayout=stackLayout;horizontal=1;startSize=40;horizontalStack=0;resizeParent=1;resizeParentMax=0;resizeLast=0;collapsible=1;marginBottom=0;whiteSpace=wrap;html=1;shadow=1;" parent="WIyWlLk6GJQsqaUBKTNV-1" vertex="1">
          <mxGeometry x="120" y="195" width="160" height="94" as="geometry">
            <mxRectangle x="230" y="200" width="80" height="30" as="alternateBounds" />
          </mxGeometry>
        </mxCell>
        <mxCell id="QvbqoP-MdQbPCHWrtRdc-1" value="- name: string&lt;div&gt;- id: int&lt;/div&gt;&lt;div&gt;- pageBalance: int&lt;br&gt;&lt;div&gt;&lt;br&gt;&lt;/div&gt;&lt;/div&gt;" style="text;strokeColor=none;fillColor=none;align=left;verticalAlign=middle;spacingLeft=4;spacingRight=4;overflow=hidden;rotatable=0;points=[[0,0.5],[1,0.5]];portConstraint=eastwest;whiteSpace=wrap;html=1;shadow=1;" parent="QvbqoP-MdQbPCHWrtRdc-0" vertex="1">
          <mxGeometry y="40" width="160" height="54" as="geometry" />
        </mxCell>
        <mxCell id="QvbqoP-MdQbPCHWrtRdc-17" value="&lt;div&gt;&lt;span style=&quot;font-weight: normal;&quot;&gt;«entity»&lt;/span&gt;&lt;/div&gt;SPSO" style="swimlane;fontStyle=1;align=center;verticalAlign=middle;childLayout=stackLayout;horizontal=1;startSize=40;horizontalStack=0;resizeParent=1;resizeParentMax=0;resizeLast=0;collapsible=1;marginBottom=0;whiteSpace=wrap;html=1;shadow=1;" parent="WIyWlLk6GJQsqaUBKTNV-1" vertex="1">
          <mxGeometry x="-320" y="440" width="160" height="80" as="geometry">
            <mxRectangle x="230" y="200" width="80" height="30" as="alternateBounds" />
          </mxGeometry>
        </mxCell>
        <mxCell id="QvbqoP-MdQbPCHWrtRdc-18" value="- name: string&lt;div&gt;- id: int&lt;/div&gt;" style="text;strokeColor=none;fillColor=none;align=left;verticalAlign=middle;spacingLeft=4;spacingRight=4;overflow=hidden;rotatable=0;points=[[0,0.5],[1,0.5]];portConstraint=eastwest;whiteSpace=wrap;html=1;shadow=1;" parent="QvbqoP-MdQbPCHWrtRdc-17" vertex="1">
          <mxGeometry y="40" width="160" height="40" as="geometry" />
        </mxCell>
        <mxCell id="MEOmKesx3q7-1LYdpKaa-31" style="edgeStyle=orthogonalEdgeStyle;rounded=0;orthogonalLoop=1;jettySize=auto;html=1;exitX=0.5;exitY=0;exitDx=0;exitDy=0;entryX=0.5;entryY=1;entryDx=0;entryDy=0;endArrow=diamondThin;endFill=0;endSize=15;" parent="WIyWlLk6GJQsqaUBKTNV-1" source="mO7OOE0X_al4gUyFU8Tj-0" target="mO69i1108rWp3eP5HKNd-5" edge="1">
          <mxGeometry relative="1" as="geometry" />
        </mxCell>
        <mxCell id="mO7OOE0X_al4gUyFU8Tj-0" value="&lt;div&gt;&lt;span style=&quot;font-weight: normal;&quot;&gt;«entity»&lt;/span&gt;&lt;/div&gt;Printer" style="swimlane;fontStyle=1;align=center;verticalAlign=middle;childLayout=stackLayout;horizontal=1;startSize=40;horizontalStack=0;resizeParent=1;resizeParentMax=0;resizeLast=0;collapsible=1;marginBottom=0;whiteSpace=wrap;html=1;shadow=1;" parent="WIyWlLk6GJQsqaUBKTNV-1" vertex="1">
          <mxGeometry x="-130" y="400" width="180" height="154" as="geometry" />
        </mxCell>
        <mxCell id="mO7OOE0X_al4gUyFU8Tj-1" value="- id: int&lt;div&gt;- brandName: string&lt;/div&gt;&lt;div&gt;- model: string&lt;/div&gt;&lt;div&gt;- description: string&lt;/div&gt;&lt;div&gt;- location: Location&lt;/div&gt;" style="text;strokeColor=none;fillColor=none;align=left;verticalAlign=middle;spacingLeft=4;spacingRight=4;overflow=hidden;rotatable=0;points=[[0,0.5],[1,0.5]];portConstraint=eastwest;whiteSpace=wrap;html=1;shadow=1;" parent="mO7OOE0X_al4gUyFU8Tj-0" vertex="1">
          <mxGeometry y="40" width="180" height="80" as="geometry" />
        </mxCell>
        <mxCell id="mO7OOE0X_al4gUyFU8Tj-2" value="" style="line;strokeWidth=1;fillColor=none;align=left;verticalAlign=middle;spacingTop=-1;spacingLeft=3;spacingRight=3;rotatable=0;labelPosition=right;points=[];portConstraint=eastwest;strokeColor=inherit;shadow=1;" parent="mO7OOE0X_al4gUyFU8Tj-0" vertex="1">
          <mxGeometry y="120" width="180" height="8" as="geometry" />
        </mxCell>
        <mxCell id="mO7OOE0X_al4gUyFU8Tj-3" value="+ printDocuments(Document)" style="text;strokeColor=none;fillColor=none;align=left;verticalAlign=middle;spacingLeft=4;spacingRight=4;overflow=hidden;rotatable=0;points=[[0,0.5],[1,0.5]];portConstraint=eastwest;whiteSpace=wrap;html=1;shadow=1;" parent="mO7OOE0X_al4gUyFU8Tj-0" vertex="1">
          <mxGeometry y="128" width="180" height="26" as="geometry" />
        </mxCell>
        <mxCell id="ptWy5ga5sxzvKW9Gz_E0-5" style="edgeStyle=orthogonalEdgeStyle;rounded=0;orthogonalLoop=1;jettySize=auto;html=1;exitX=0.5;exitY=0;exitDx=0;exitDy=0;entryX=0.5;entryY=1;entryDx=0;entryDy=0;endArrow=diamondThin;endFill=0;verticalAlign=middle;shadow=1;endSize=15;" parent="WIyWlLk6GJQsqaUBKTNV-1" source="ptWy5ga5sxzvKW9Gz_E0-0" target="mO7OOE0X_al4gUyFU8Tj-0" edge="1">
          <mxGeometry relative="1" as="geometry" />
        </mxCell>
        <mxCell id="ptWy5ga5sxzvKW9Gz_E0-0" value="&lt;div&gt;&lt;div&gt;&lt;span style=&quot;font-weight: normal;&quot;&gt;«entity»&lt;/span&gt;&lt;/div&gt;&lt;/div&gt;&lt;div&gt;Location&lt;/div&gt;" style="swimlane;fontStyle=1;align=center;verticalAlign=middle;childLayout=stackLayout;horizontal=1;startSize=30;horizontalStack=0;resizeParent=1;resizeParentMax=0;resizeLast=0;collapsible=1;marginBottom=0;whiteSpace=wrap;html=1;shadow=1;" parent="WIyWlLk6GJQsqaUBKTNV-1" vertex="1">
          <mxGeometry x="-120" y="600" width="160" height="80" as="geometry">
            <mxRectangle x="230" y="200" width="80" height="30" as="alternateBounds" />
          </mxGeometry>
        </mxCell>
        <mxCell id="ptWy5ga5sxzvKW9Gz_E0-1" value="- campusName: string&lt;div&gt;- buildingName: string&lt;/div&gt;&lt;div&gt;- roomNumber: int&lt;/div&gt;" style="text;strokeColor=none;fillColor=none;align=left;verticalAlign=middle;spacingLeft=4;spacingRight=4;overflow=hidden;rotatable=0;points=[[0,0.5],[1,0.5]];portConstraint=eastwest;whiteSpace=wrap;html=1;shadow=1;" parent="ptWy5ga5sxzvKW9Gz_E0-0" vertex="1">
          <mxGeometry y="30" width="160" height="50" as="geometry" />
        </mxCell>
        <mxCell id="ptWy5ga5sxzvKW9Gz_E0-6" value="&lt;div&gt;&lt;div&gt;&lt;span style=&quot;font-weight: normal;&quot;&gt;«entity»&lt;/span&gt;&lt;/div&gt;Document&lt;/div&gt;" style="swimlane;fontStyle=1;align=center;verticalAlign=middle;childLayout=stackLayout;horizontal=1;startSize=30;horizontalStack=0;resizeParent=1;resizeParentMax=0;resizeLast=0;collapsible=1;marginBottom=0;whiteSpace=wrap;html=1;shadow=1;" parent="WIyWlLk6GJQsqaUBKTNV-1" vertex="1">
          <mxGeometry x="120" y="430" width="160" height="70" as="geometry">
            <mxRectangle x="230" y="200" width="80" height="30" as="alternateBounds" />
          </mxGeometry>
        </mxCell>
        <mxCell id="ptWy5ga5sxzvKW9Gz_E0-7" value="- name: string&lt;div&gt;- id: int&lt;/div&gt;" style="text;strokeColor=none;fillColor=none;align=left;verticalAlign=middle;spacingLeft=4;spacingRight=4;overflow=hidden;rotatable=0;points=[[0,0.5],[1,0.5]];portConstraint=eastwest;whiteSpace=wrap;html=1;shadow=1;" parent="ptWy5ga5sxzvKW9Gz_E0-6" vertex="1">
          <mxGeometry y="30" width="160" height="40" as="geometry" />
        </mxCell>
        <mxCell id="MEOmKesx3q7-1LYdpKaa-9" style="edgeStyle=orthogonalEdgeStyle;rounded=0;orthogonalLoop=1;jettySize=auto;html=1;exitX=0.5;exitY=0;exitDx=0;exitDy=0;entryX=0.5;entryY=1;entryDx=0;entryDy=0;endArrow=block;endFill=0;jumpStyle=none;shadow=1;endSize=15;" parent="WIyWlLk6GJQsqaUBKTNV-1" source="mO69i1108rWp3eP5HKNd-0" target="MEOmKesx3q7-1LYdpKaa-3" edge="1">
          <mxGeometry relative="1" as="geometry" />
        </mxCell>
        <mxCell id="MEOmKesx3q7-1LYdpKaa-25" style="edgeStyle=orthogonalEdgeStyle;rounded=0;orthogonalLoop=1;jettySize=auto;html=1;exitX=1;exitY=0.5;exitDx=0;exitDy=0;entryX=0;entryY=0.5;entryDx=0;entryDy=0;endArrow=none;endFill=0;" parent="WIyWlLk6GJQsqaUBKTNV-1" source="mO69i1108rWp3eP5HKNd-0" target="MEOmKesx3q7-1LYdpKaa-0" edge="1">
          <mxGeometry relative="1" as="geometry" />
        </mxCell>
        <mxCell id="mO69i1108rWp3eP5HKNd-0" value="&lt;div&gt;&lt;span style=&quot;font-weight: normal;&quot;&gt;«boundary»&lt;/span&gt;&lt;/div&gt;PrintingScreen" style="swimlane;fontStyle=1;align=center;verticalAlign=middle;childLayout=stackLayout;horizontal=1;startSize=40;horizontalStack=0;resizeParent=1;resizeParentMax=0;resizeLast=0;collapsible=1;marginBottom=0;whiteSpace=wrap;html=1;shadow=1;" parent="WIyWlLk6GJQsqaUBKTNV-1" vertex="1">
          <mxGeometry x="-120" y="78" width="160" height="50" as="geometry">
            <mxRectangle x="230" y="200" width="80" height="30" as="alternateBounds" />
          </mxGeometry>
        </mxCell>
        <mxCell id="mO69i1108rWp3eP5HKNd-2" value="" style="text;strokeColor=default;fillColor=none;align=left;verticalAlign=middle;spacingLeft=4;spacingRight=4;overflow=hidden;rotatable=0;points=[[0,0.5],[1,0.5]];portConstraint=eastwest;whiteSpace=wrap;html=1;shadow=1;" parent="mO69i1108rWp3eP5HKNd-0" vertex="1">
          <mxGeometry y="40" width="160" height="10" as="geometry" />
        </mxCell>
        <mxCell id="MEOmKesx3q7-1LYdpKaa-38" style="edgeStyle=orthogonalEdgeStyle;shape=connector;rounded=0;orthogonalLoop=1;jettySize=auto;html=1;exitX=0.5;exitY=0;exitDx=0;exitDy=0;entryX=0.5;entryY=1;entryDx=0;entryDy=0;strokeColor=default;align=center;verticalAlign=middle;fontFamily=Helvetica;fontSize=11;fontColor=default;labelBackgroundColor=default;endArrow=diamondThin;endFill=0;endSize=15;" parent="WIyWlLk6GJQsqaUBKTNV-1" source="mO69i1108rWp3eP5HKNd-3" target="MEOmKesx3q7-1LYdpKaa-18" edge="1">
          <mxGeometry relative="1" as="geometry" />
        </mxCell>
        <mxCell id="mO69i1108rWp3eP5HKNd-3" value="&lt;div&gt;&lt;span style=&quot;font-weight: normal;&quot;&gt;«entity»&lt;/span&gt;&lt;/div&gt;PrintingLog" style="swimlane;fontStyle=1;align=center;verticalAlign=middle;childLayout=stackLayout;horizontal=1;startSize=30;horizontalStack=0;resizeParent=1;resizeParentMax=0;resizeLast=0;collapsible=1;marginBottom=0;whiteSpace=wrap;html=1;shadow=1;" parent="WIyWlLk6GJQsqaUBKTNV-1" vertex="1">
          <mxGeometry x="360" y="554" width="160" height="150" as="geometry">
            <mxRectangle x="230" y="200" width="80" height="30" as="alternateBounds" />
          </mxGeometry>
        </mxCell>
        <mxCell id="mO69i1108rWp3eP5HKNd-4" value="- studentId: int&lt;div&gt;- printerId: int&lt;/div&gt;&lt;div&gt;- document: Document&lt;/div&gt;&lt;div&gt;- requestTime: Date&lt;/div&gt;&lt;div&gt;- receiveTime: Date&lt;/div&gt;&lt;div&gt;- numOfPages: int&lt;br&gt;- paperSize: string&lt;/div&gt;" style="text;strokeColor=none;fillColor=none;align=left;verticalAlign=middle;spacingLeft=4;spacingRight=4;overflow=hidden;rotatable=0;points=[[0,0.5],[1,0.5]];portConstraint=eastwest;whiteSpace=wrap;html=1;shadow=1;" parent="mO69i1108rWp3eP5HKNd-3" vertex="1">
          <mxGeometry y="30" width="160" height="120" as="geometry" />
        </mxCell>
        <mxCell id="MEOmKesx3q7-1LYdpKaa-30" style="edgeStyle=orthogonalEdgeStyle;rounded=0;orthogonalLoop=1;jettySize=auto;html=1;exitX=0.5;exitY=0;exitDx=0;exitDy=0;entryX=0.5;entryY=1;entryDx=0;entryDy=0;endArrow=none;endFill=0;" parent="WIyWlLk6GJQsqaUBKTNV-1" source="mO69i1108rWp3eP5HKNd-5" target="mO69i1108rWp3eP5HKNd-0" edge="1">
          <mxGeometry relative="1" as="geometry" />
        </mxCell>
        <mxCell id="mO69i1108rWp3eP5HKNd-5" value="&lt;div&gt;&lt;span style=&quot;font-weight: normal;&quot;&gt;«control»&lt;/span&gt;&lt;/div&gt;PrintingController" style="swimlane;fontStyle=1;align=center;verticalAlign=middle;childLayout=stackLayout;horizontal=1;startSize=40;horizontalStack=0;resizeParent=1;resizeParentMax=0;resizeLast=0;collapsible=1;marginBottom=0;whiteSpace=wrap;html=1;shadow=1;" parent="WIyWlLk6GJQsqaUBKTNV-1" vertex="1">
          <mxGeometry x="-140" y="200" width="200" height="124" as="geometry">
            <mxRectangle x="230" y="200" width="80" height="30" as="alternateBounds" />
          </mxGeometry>
        </mxCell>
        <mxCell id="mO69i1108rWp3eP5HKNd-6" value="- printers: Printer[]" style="text;strokeColor=none;fillColor=none;align=left;verticalAlign=middle;spacingLeft=4;spacingRight=4;overflow=hidden;rotatable=0;points=[[0,0.5],[1,0.5]];portConstraint=eastwest;whiteSpace=wrap;html=1;shadow=1;" parent="mO69i1108rWp3eP5HKNd-5" vertex="1">
          <mxGeometry y="40" width="200" height="30" as="geometry" />
        </mxCell>
        <mxCell id="mO69i1108rWp3eP5HKNd-7" value="+ validateFile(file)&lt;div&gt;+ checkStudent(student, document)&lt;/div&gt;&lt;div&gt;+ printDocument(document)&lt;/div&gt;" style="text;strokeColor=default;fillColor=none;align=left;verticalAlign=middle;spacingLeft=4;spacingRight=4;overflow=hidden;rotatable=0;points=[[0,0.5],[1,0.5]];portConstraint=eastwest;whiteSpace=wrap;html=1;shadow=1;" parent="mO69i1108rWp3eP5HKNd-5" vertex="1">
          <mxGeometry y="70" width="200" height="54" as="geometry" />
        </mxCell>
        <mxCell id="MEOmKesx3q7-1LYdpKaa-15" style="edgeStyle=orthogonalEdgeStyle;rounded=0;orthogonalLoop=1;jettySize=auto;html=1;exitX=0.5;exitY=0;exitDx=0;exitDy=0;entryX=0.5;entryY=1;entryDx=0;entryDy=0;endArrow=block;endFill=0;endSize=15;" parent="WIyWlLk6GJQsqaUBKTNV-1" source="VESFZhxVJHPxogwgGF7U-0" target="MEOmKesx3q7-1LYdpKaa-3" edge="1">
          <mxGeometry relative="1" as="geometry" />
        </mxCell>
        <mxCell id="VESFZhxVJHPxogwgGF7U-0" value="&lt;div&gt;&lt;span style=&quot;font-weight: normal;&quot;&gt;«boundary»&lt;/span&gt;&lt;/div&gt;&lt;div&gt;PrintingHistoryScreen&lt;/div&gt;" style="swimlane;fontStyle=1;align=center;verticalAlign=middle;childLayout=stackLayout;horizontal=1;startSize=40;horizontalStack=0;resizeParent=1;resizeParentMax=0;resizeLast=0;collapsible=1;marginBottom=0;whiteSpace=wrap;html=1;shadow=1;" parent="WIyWlLk6GJQsqaUBKTNV-1" vertex="1">
          <mxGeometry x="360" y="78" width="160" height="50" as="geometry">
            <mxRectangle x="230" y="200" width="80" height="30" as="alternateBounds" />
          </mxGeometry>
        </mxCell>
        <mxCell id="VESFZhxVJHPxogwgGF7U-2" value="" style="text;strokeColor=default;fillColor=none;align=left;verticalAlign=middle;spacingLeft=4;spacingRight=4;overflow=hidden;rotatable=0;points=[[0,0.5],[1,0.5]];portConstraint=eastwest;whiteSpace=wrap;html=1;shadow=1;" parent="VESFZhxVJHPxogwgGF7U-0" vertex="1">
          <mxGeometry y="40" width="160" height="10" as="geometry" />
        </mxCell>
        <mxCell id="MEOmKesx3q7-1LYdpKaa-8" style="edgeStyle=orthogonalEdgeStyle;rounded=0;orthogonalLoop=1;jettySize=auto;html=1;exitX=0.5;exitY=0;exitDx=0;exitDy=0;entryX=0.5;entryY=1;entryDx=0;entryDy=0;endArrow=block;endFill=0;shadow=1;endSize=15;" parent="WIyWlLk6GJQsqaUBKTNV-1" source="MEOmKesx3q7-1LYdpKaa-0" target="MEOmKesx3q7-1LYdpKaa-3" edge="1">
          <mxGeometry relative="1" as="geometry" />
        </mxCell>
        <mxCell id="MEOmKesx3q7-1LYdpKaa-26" style="edgeStyle=orthogonalEdgeStyle;rounded=0;orthogonalLoop=1;jettySize=auto;html=1;exitX=1;exitY=0.5;exitDx=0;exitDy=0;entryX=0;entryY=0.5;entryDx=0;entryDy=0;endArrow=none;endFill=0;" parent="WIyWlLk6GJQsqaUBKTNV-1" source="MEOmKesx3q7-1LYdpKaa-0" target="VESFZhxVJHPxogwgGF7U-0" edge="1">
          <mxGeometry relative="1" as="geometry" />
        </mxCell>
        <mxCell id="MEOmKesx3q7-1LYdpKaa-0" value="&lt;div&gt;&lt;span style=&quot;font-weight: normal;&quot;&gt;«boundary»&lt;/span&gt;&lt;/div&gt;PrintManagementScreen" style="swimlane;fontStyle=1;align=center;verticalAlign=middle;childLayout=stackLayout;horizontal=1;startSize=40;horizontalStack=0;resizeParent=1;resizeParentMax=0;resizeLast=0;collapsible=1;marginBottom=0;whiteSpace=wrap;html=1;shadow=1;" parent="WIyWlLk6GJQsqaUBKTNV-1" vertex="1">
          <mxGeometry x="120" y="78" width="160" height="50" as="geometry">
            <mxRectangle x="230" y="200" width="80" height="30" as="alternateBounds" />
          </mxGeometry>
        </mxCell>
        <mxCell id="MEOmKesx3q7-1LYdpKaa-2" value="&lt;div&gt;&lt;div&gt;&lt;br&gt;&lt;/div&gt;&lt;/div&gt;" style="text;strokeColor=default;fillColor=none;align=left;verticalAlign=middle;spacingLeft=4;spacingRight=4;overflow=hidden;rotatable=0;points=[[0,0.5],[1,0.5]];portConstraint=eastwest;whiteSpace=wrap;html=1;shadow=1;" parent="MEOmKesx3q7-1LYdpKaa-0" vertex="1">
          <mxGeometry y="40" width="160" height="10" as="geometry" />
        </mxCell>
        <mxCell id="MEOmKesx3q7-1LYdpKaa-3" value="&lt;div&gt;&lt;span style=&quot;font-weight: normal;&quot;&gt;«boundary»&lt;/span&gt;&lt;/div&gt;WebScreen" style="swimlane;fontStyle=1;align=center;verticalAlign=middle;childLayout=stackLayout;horizontal=1;startSize=40;horizontalStack=0;resizeParent=1;resizeParentMax=0;resizeLast=0;collapsible=1;marginBottom=0;whiteSpace=wrap;html=1;shadow=1;" parent="WIyWlLk6GJQsqaUBKTNV-1" vertex="1">
          <mxGeometry x="120" y="-120" width="160" height="94" as="geometry">
            <mxRectangle x="230" y="200" width="80" height="30" as="alternateBounds" />
          </mxGeometry>
        </mxCell>
        <mxCell id="MEOmKesx3q7-1LYdpKaa-5" value="&lt;div&gt;&lt;div&gt;+ display()&lt;/div&gt;&lt;/div&gt;&lt;div&gt;+ handleEvent(event)&lt;/div&gt;" style="text;strokeColor=default;fillColor=none;align=left;verticalAlign=middle;spacingLeft=4;spacingRight=4;overflow=hidden;rotatable=0;points=[[0,0.5],[1,0.5]];portConstraint=eastwest;whiteSpace=wrap;html=1;shadow=1;" parent="MEOmKesx3q7-1LYdpKaa-3" vertex="1">
          <mxGeometry y="40" width="160" height="54" as="geometry" />
        </mxCell>
        <mxCell id="MEOmKesx3q7-1LYdpKaa-11" value="&lt;div&gt;&lt;span style=&quot;font-weight: normal;&quot;&gt;«entity»&lt;/span&gt;&lt;/div&gt;Event" style="swimlane;fontStyle=1;align=center;verticalAlign=middle;childLayout=stackLayout;horizontal=1;startSize=40;horizontalStack=0;resizeParent=1;resizeParentMax=0;resizeLast=0;collapsible=1;marginBottom=0;whiteSpace=wrap;html=1;shadow=1;" parent="WIyWlLk6GJQsqaUBKTNV-1" vertex="1">
          <mxGeometry x="360" y="-76" width="160" height="46" as="geometry">
            <mxRectangle x="230" y="200" width="80" height="30" as="alternateBounds" />
          </mxGeometry>
        </mxCell>
        <mxCell id="MEOmKesx3q7-1LYdpKaa-13" style="edgeStyle=orthogonalEdgeStyle;rounded=0;orthogonalLoop=1;jettySize=auto;html=1;exitX=1;exitY=0.5;exitDx=0;exitDy=0;entryX=0;entryY=0.5;entryDx=0;entryDy=0;dashed=1;endArrow=open;endFill=0;" parent="WIyWlLk6GJQsqaUBKTNV-1" source="MEOmKesx3q7-1LYdpKaa-5" target="MEOmKesx3q7-1LYdpKaa-11" edge="1">
          <mxGeometry relative="1" as="geometry" />
        </mxCell>
        <mxCell id="MEOmKesx3q7-1LYdpKaa-29" style="edgeStyle=orthogonalEdgeStyle;rounded=0;orthogonalLoop=1;jettySize=auto;html=1;exitX=0.5;exitY=0;exitDx=0;exitDy=0;entryX=0.5;entryY=1;entryDx=0;entryDy=0;endArrow=diamondThin;endFill=0;endSize=15;" parent="WIyWlLk6GJQsqaUBKTNV-1" source="MEOmKesx3q7-1LYdpKaa-18" target="MEOmKesx3q7-1LYdpKaa-22" edge="1">
          <mxGeometry relative="1" as="geometry" />
        </mxCell>
        <mxCell id="MEOmKesx3q7-1LYdpKaa-18" value="&lt;div&gt;&lt;span style=&quot;font-weight: normal;&quot;&gt;«entity»&lt;/span&gt;&lt;/div&gt;PrintingHistory" style="swimlane;fontStyle=1;align=center;verticalAlign=middle;childLayout=stackLayout;horizontal=1;startSize=40;horizontalStack=0;resizeParent=1;resizeParentMax=0;resizeLast=0;collapsible=1;marginBottom=0;whiteSpace=wrap;html=1;shadow=1;" parent="WIyWlLk6GJQsqaUBKTNV-1" vertex="1">
          <mxGeometry x="360" y="400" width="160" height="110" as="geometry" />
        </mxCell>
        <mxCell id="MEOmKesx3q7-1LYdpKaa-19" value="- printingLogs: PrintingLog[]" style="text;strokeColor=none;fillColor=none;align=left;verticalAlign=middle;spacingLeft=4;spacingRight=4;overflow=hidden;rotatable=0;points=[[0,0.5],[1,0.5]];portConstraint=eastwest;whiteSpace=wrap;html=1;shadow=1;" parent="MEOmKesx3q7-1LYdpKaa-18" vertex="1">
          <mxGeometry y="40" width="160" height="30" as="geometry" />
        </mxCell>
        <mxCell id="MEOmKesx3q7-1LYdpKaa-20" value="" style="line;strokeWidth=1;fillColor=none;align=left;verticalAlign=middle;spacingTop=-1;spacingLeft=3;spacingRight=3;rotatable=0;labelPosition=right;points=[];portConstraint=eastwest;strokeColor=inherit;shadow=1;" parent="MEOmKesx3q7-1LYdpKaa-18" vertex="1">
          <mxGeometry y="70" width="160" height="8" as="geometry" />
        </mxCell>
        <mxCell id="MEOmKesx3q7-1LYdpKaa-21" value="+ getPrintingLogs()" style="text;strokeColor=none;fillColor=none;align=left;verticalAlign=middle;spacingLeft=4;spacingRight=4;overflow=hidden;rotatable=0;points=[[0,0.5],[1,0.5]];portConstraint=eastwest;whiteSpace=wrap;html=1;shadow=1;" parent="MEOmKesx3q7-1LYdpKaa-18" vertex="1">
          <mxGeometry y="78" width="160" height="32" as="geometry" />
        </mxCell>
        <mxCell id="MEOmKesx3q7-1LYdpKaa-27" style="edgeStyle=orthogonalEdgeStyle;rounded=0;orthogonalLoop=1;jettySize=auto;html=1;exitX=0.5;exitY=0;exitDx=0;exitDy=0;entryX=0.5;entryY=1;entryDx=0;entryDy=0;endArrow=none;endFill=0;" parent="WIyWlLk6GJQsqaUBKTNV-1" source="MEOmKesx3q7-1LYdpKaa-22" target="VESFZhxVJHPxogwgGF7U-0" edge="1">
          <mxGeometry relative="1" as="geometry" />
        </mxCell>
        <mxCell id="MEOmKesx3q7-1LYdpKaa-22" value="&lt;div&gt;&lt;span style=&quot;font-weight: normal;&quot;&gt;«control»&lt;/span&gt;&lt;/div&gt;PrintingHistoryController" style="swimlane;fontStyle=1;align=center;verticalAlign=middle;childLayout=stackLayout;horizontal=1;startSize=40;horizontalStack=0;resizeParent=1;resizeParentMax=0;resizeLast=0;collapsible=1;marginBottom=0;whiteSpace=wrap;html=1;shadow=1;" parent="WIyWlLk6GJQsqaUBKTNV-1" vertex="1">
          <mxGeometry x="360" y="200" width="160" height="124" as="geometry">
            <mxRectangle x="230" y="200" width="80" height="30" as="alternateBounds" />
          </mxGeometry>
        </mxCell>
        <mxCell id="MEOmKesx3q7-1LYdpKaa-23" value="&lt;div&gt;&lt;div&gt;- history: PrintingHistory&lt;/div&gt;&lt;/div&gt;" style="text;strokeColor=none;fillColor=none;align=left;verticalAlign=middle;spacingLeft=4;spacingRight=4;overflow=hidden;rotatable=0;points=[[0,0.5],[1,0.5]];portConstraint=eastwest;whiteSpace=wrap;html=1;shadow=1;" parent="MEOmKesx3q7-1LYdpKaa-22" vertex="1">
          <mxGeometry y="40" width="160" height="30" as="geometry" />
        </mxCell>
        <mxCell id="MEOmKesx3q7-1LYdpKaa-24" value="+ sortByPageNo()&lt;div&gt;+ sortByDate()&lt;/div&gt;&lt;div&gt;+ summary()&lt;/div&gt;" style="text;strokeColor=default;fillColor=none;align=left;verticalAlign=middle;spacingLeft=4;spacingRight=4;overflow=hidden;rotatable=0;points=[[0,0.5],[1,0.5]];portConstraint=eastwest;whiteSpace=wrap;html=1;shadow=1;" parent="MEOmKesx3q7-1LYdpKaa-22" vertex="1">
          <mxGeometry y="70" width="160" height="54" as="geometry" />
        </mxCell>
        <mxCell id="MEOmKesx3q7-1LYdpKaa-33" style="edgeStyle=orthogonalEdgeStyle;shape=connector;rounded=0;orthogonalLoop=1;jettySize=auto;html=1;exitX=0;exitY=0.5;exitDx=0;exitDy=0;entryX=1;entryY=0.5;entryDx=0;entryDy=0;strokeColor=default;align=center;verticalAlign=middle;fontFamily=Helvetica;fontSize=11;fontColor=default;labelBackgroundColor=default;endArrow=none;endFill=0;" parent="WIyWlLk6GJQsqaUBKTNV-1" source="QvbqoP-MdQbPCHWrtRdc-1" target="mO69i1108rWp3eP5HKNd-5" edge="1">
          <mxGeometry relative="1" as="geometry" />
        </mxCell>
        <mxCell id="MEOmKesx3q7-1LYdpKaa-34" style="edgeStyle=orthogonalEdgeStyle;shape=connector;rounded=0;orthogonalLoop=1;jettySize=auto;html=1;exitX=0;exitY=0.5;exitDx=0;exitDy=0;entryX=1;entryY=0.5;entryDx=0;entryDy=0;strokeColor=default;align=center;verticalAlign=middle;fontFamily=Helvetica;fontSize=11;fontColor=default;labelBackgroundColor=default;endArrow=none;endFill=0;" parent="WIyWlLk6GJQsqaUBKTNV-1" source="ptWy5ga5sxzvKW9Gz_E0-7" target="mO69i1108rWp3eP5HKNd-7" edge="1">
          <mxGeometry relative="1" as="geometry" />
        </mxCell>
        <mxCell id="MEOmKesx3q7-1LYdpKaa-36" style="edgeStyle=orthogonalEdgeStyle;shape=connector;rounded=0;orthogonalLoop=1;jettySize=auto;html=1;exitX=0;exitY=0.5;exitDx=0;exitDy=0;entryX=1;entryY=0.5;entryDx=0;entryDy=0;strokeColor=default;align=center;verticalAlign=middle;fontFamily=Helvetica;fontSize=11;fontColor=default;labelBackgroundColor=default;endArrow=none;endFill=0;" parent="WIyWlLk6GJQsqaUBKTNV-1" source="ptWy5ga5sxzvKW9Gz_E0-7" target="mO7OOE0X_al4gUyFU8Tj-1" edge="1">
          <mxGeometry relative="1" as="geometry" />
        </mxCell>
        <mxCell id="MEOmKesx3q7-1LYdpKaa-37" style="edgeStyle=orthogonalEdgeStyle;shape=connector;rounded=0;orthogonalLoop=1;jettySize=auto;html=1;exitX=0;exitY=0.5;exitDx=0;exitDy=0;entryX=1;entryY=0.5;entryDx=0;entryDy=0;strokeColor=default;align=center;verticalAlign=middle;fontFamily=Helvetica;fontSize=11;fontColor=default;labelBackgroundColor=default;endArrow=none;endFill=0;" parent="WIyWlLk6GJQsqaUBKTNV-1" source="mO7OOE0X_al4gUyFU8Tj-1" target="QvbqoP-MdQbPCHWrtRdc-17" edge="1">
          <mxGeometry relative="1" as="geometry" />
        </mxCell>
        <mxCell id="MEOmKesx3q7-1LYdpKaa-39" style="edgeStyle=orthogonalEdgeStyle;shape=connector;rounded=0;orthogonalLoop=1;jettySize=auto;html=1;exitX=1;exitY=0.5;exitDx=0;exitDy=0;entryX=0;entryY=0.5;entryDx=0;entryDy=0;strokeColor=default;align=center;verticalAlign=middle;fontFamily=Helvetica;fontSize=11;fontColor=default;labelBackgroundColor=default;endArrow=diamondThin;endFill=0;endSize=15;" parent="WIyWlLk6GJQsqaUBKTNV-1" source="ptWy5ga5sxzvKW9Gz_E0-7" target="mO69i1108rWp3eP5HKNd-3" edge="1">
          <mxGeometry relative="1" as="geometry" />
        </mxCell>
        <mxCell id="MEOmKesx3q7-1LYdpKaa-40" style="edgeStyle=orthogonalEdgeStyle;shape=connector;rounded=0;orthogonalLoop=1;jettySize=auto;html=1;exitX=1;exitY=0.5;exitDx=0;exitDy=0;entryX=0;entryY=0.5;entryDx=0;entryDy=0;strokeColor=default;align=center;verticalAlign=middle;fontFamily=Helvetica;fontSize=11;fontColor=default;labelBackgroundColor=default;endArrow=none;endFill=0;" parent="WIyWlLk6GJQsqaUBKTNV-1" source="mO7OOE0X_al4gUyFU8Tj-3" target="mO69i1108rWp3eP5HKNd-4" edge="1">
          <mxGeometry relative="1" as="geometry" />
        </mxCell>
        <mxCell id="K82y1Pqr5yB0TYw1nwnQ-0" value="1" style="text;html=1;align=center;verticalAlign=middle;whiteSpace=wrap;rounded=0;" parent="WIyWlLk6GJQsqaUBKTNV-1" vertex="1">
          <mxGeometry x="-50" y="330" width="40" height="16" as="geometry" />
        </mxCell>
        <mxCell id="K82y1Pqr5yB0TYw1nwnQ-2" value="*" style="text;html=1;align=center;verticalAlign=middle;whiteSpace=wrap;rounded=0;" parent="WIyWlLk6GJQsqaUBKTNV-1" vertex="1">
          <mxGeometry x="-50" y="384" width="40" height="16" as="geometry" />
        </mxCell>
        <mxCell id="K82y1Pqr5yB0TYw1nwnQ-3" value="1" style="text;html=1;align=center;verticalAlign=middle;whiteSpace=wrap;rounded=0;" parent="WIyWlLk6GJQsqaUBKTNV-1" vertex="1">
          <mxGeometry x="-50" y="584" width="40" height="16" as="geometry" />
        </mxCell>
        <mxCell id="K82y1Pqr5yB0TYw1nwnQ-5" value="*" style="text;html=1;align=center;verticalAlign=middle;whiteSpace=wrap;rounded=0;" parent="WIyWlLk6GJQsqaUBKTNV-1" vertex="1">
          <mxGeometry x="-50" y="560" width="40" height="16" as="geometry" />
        </mxCell>
        <mxCell id="K82y1Pqr5yB0TYw1nwnQ-6" value="1" style="text;html=1;align=center;verticalAlign=middle;whiteSpace=wrap;rounded=0;" parent="WIyWlLk6GJQsqaUBKTNV-1" vertex="1">
          <mxGeometry x="315" y="613" width="40" height="16" as="geometry" />
        </mxCell>
        <mxCell id="K82y1Pqr5yB0TYw1nwnQ-7" value="1" style="text;html=1;align=center;verticalAlign=middle;whiteSpace=wrap;rounded=0;" parent="WIyWlLk6GJQsqaUBKTNV-1" vertex="1">
          <mxGeometry x="276" y="464" width="40" height="16" as="geometry" />
        </mxCell>
        <mxCell id="K82y1Pqr5yB0TYw1nwnQ-8" value="1" style="text;html=1;align=center;verticalAlign=middle;whiteSpace=wrap;rounded=0;" parent="WIyWlLk6GJQsqaUBKTNV-1" vertex="1">
          <mxGeometry x="431" y="510" width="40" height="16" as="geometry" />
        </mxCell>
        <mxCell id="K82y1Pqr5yB0TYw1nwnQ-10" value="*" style="text;html=1;align=center;verticalAlign=middle;whiteSpace=wrap;rounded=0;" parent="WIyWlLk6GJQsqaUBKTNV-1" vertex="1">
          <mxGeometry x="431" y="538" width="40" height="16" as="geometry" />
        </mxCell>
        <mxCell id="K82y1Pqr5yB0TYw1nwnQ-11" value="1" style="text;html=1;align=center;verticalAlign=middle;whiteSpace=wrap;rounded=0;" parent="WIyWlLk6GJQsqaUBKTNV-1" vertex="1">
          <mxGeometry x="431" y="340" width="40" height="16" as="geometry" />
        </mxCell>
        <mxCell id="K82y1Pqr5yB0TYw1nwnQ-12" value="1" style="text;html=1;align=center;verticalAlign=middle;whiteSpace=wrap;rounded=0;" parent="WIyWlLk6GJQsqaUBKTNV-1" vertex="1">
          <mxGeometry x="431" y="384" width="40" height="16" as="geometry" />
        </mxCell>
      </root>
    </mxGraphModel>
  </diagram>
</mxfile>
